<svg xmlns="http://www.w3.org/2000/svg" width="667" height="254" viewBox="0 0 667 254">
  <g id="Group_242" data-name="Group 242" transform="translate(14281.265 21119.002)">
    <g id="Layer_4" transform="translate(-14330.265 -21151.834)">
      <line id="Line_13" data-name="Line 13" y1="41.667" transform="translate(52.5 145)" fill="none" stroke="#333" stroke-width="1"/>
      <line id="Line_14" data-name="Line 14" y2="29.334" transform="translate(64.5 167.999)" fill="none" stroke="#333" stroke-width="1"/>
      <line id="Line_15" data-name="Line 15" y2="29.334" transform="translate(76.5 167.999)" fill="none" stroke="#333" stroke-width="1"/>
      <line id="Line_16" data-name="Line 16" y2="32.746" transform="translate(88.5 211)" fill="none" stroke="#333" stroke-width="1"/>
      <line id="Line_17" data-name="Line 17" y2="55.557" transform="translate(124.5 190.25)" fill="none" stroke="#333" stroke-width="1"/>
      <line id="Line_18" data-name="Line 18" y2="45.5" transform="translate(172.5 87)" fill="none" stroke="#333" stroke-width="1"/>
      <line id="Line_19" data-name="Line 19" y2="35.416" transform="translate(208.5 157.25)" fill="none" stroke="#333" stroke-width="1"/>
      <line id="Line_20" data-name="Line 20" y2="39.166" transform="translate(220.5 168.959)" fill="none" stroke="#333" stroke-width="1"/>
      <line id="Line_21" data-name="Line 21" y2="36.512" transform="translate(244.5 201.655)" fill="none" stroke="#333" stroke-width="1"/>
      <line id="Line_22" data-name="Line 22" y2="40.186" transform="translate(280.5 136.07)" fill="none" stroke="#333" stroke-width="1"/>
      <line id="Line_23" data-name="Line 23" y2="40.186" transform="translate(292.5 164.052)" fill="none" stroke="#333" stroke-width="1"/>
      <line id="Line_24" data-name="Line 24" y2="48.001" transform="translate(376.5 144)" fill="none" stroke="#333" stroke-width="1"/>
      <line id="Line_25" data-name="Line 25" y2="30.709" transform="translate(388.5 165.166)" fill="none" stroke="#333" stroke-width="1"/>
      <line id="Line_26" data-name="Line 26" y2="37.77" transform="translate(400.5 147.167)" fill="none" stroke="#333" stroke-width="1"/>
      <line id="Line_27" data-name="Line 27" y2="73.967" transform="translate(304.5 145.944)" fill="none" stroke="#333" stroke-width="1"/>
      <line id="Line_28" data-name="Line 28" y2="64.523" transform="translate(328.5 130.352)" fill="none" stroke="#333" stroke-width="1"/>
      <line id="Line_29" data-name="Line 29" y2="49.25" transform="translate(352.5 75.75)" fill="none" stroke="#333" stroke-width="1"/>
      <line id="Line_30" data-name="Line 30" y2="79.318" transform="translate(340.5 105.778)" fill="none" stroke="#333" stroke-width="1"/>
      <line id="Line_31" data-name="Line 31" y2="90.395" transform="translate(364.5 93.75)" fill="none" stroke="#333" stroke-width="1"/>
      <line id="Line_32" data-name="Line 32" y2="62.719" transform="translate(316.5 137.267)" fill="none" stroke="#333" stroke-width="1"/>
      <line id="Line_33" data-name="Line 33" y2="55.845" transform="translate(256.5 201.655)" fill="none" stroke="#333" stroke-width="1"/>
      <line id="Line_34" data-name="Line 34" y2="61.417" transform="translate(268.5 222.75)" fill="none" stroke="#333" stroke-width="1"/>
      <line id="Line_35" data-name="Line 35" y2="35.625" transform="translate(232.5 188.542)" fill="none" stroke="#333" stroke-width="1"/>
      <line id="Line_36" data-name="Line 36" y2="39.684" transform="translate(184.5 70.066)" fill="none" stroke="#333" stroke-width="1"/>
      <line id="Line_37" data-name="Line 37" y2="92.294" transform="translate(196.5 84.205)" fill="none" stroke="#333" stroke-width="1"/>
      <line id="Line_38" data-name="Line 38" y2="118.157" transform="translate(148.5 137.592)" fill="none" stroke="#333" stroke-width="1"/>
      <line id="Line_39" data-name="Line 39" y2="77" transform="translate(160.5 119.671)" fill="none" stroke="#333" stroke-width="1"/>
      <line id="Line_40" data-name="Line 40" y2="26.5" transform="translate(112.5 241.5)" fill="none" stroke="#333" stroke-width="1"/>
      <line id="Line_41" data-name="Line 41" y2="30.927" transform="translate(136.5 214.88)" fill="none" stroke="#333" stroke-width="1"/>
      <line id="Line_42" data-name="Line 42" y2="32.746" transform="translate(100.5 239.377)" fill="none" stroke="#333" stroke-width="1"/>
      <line id="Line_43" data-name="Line 43" y2="39.615" transform="translate(412.5 166.052)" fill="none" stroke="#333" stroke-width="1"/>
      <line id="Line_44" data-name="Line 44" y2="23.104" transform="translate(424.5 182.563)" fill="none" stroke="#333" stroke-width="1"/>
      <line id="Line_45" data-name="Line 45" y1="37.115" transform="translate(436.5 166.052)" fill="none" stroke="#333" stroke-width="1"/>
      <line id="Line_46" data-name="Line 46" y2="25.146" transform="translate(448.5 180.521)" fill="none" stroke="#333" stroke-width="1"/>
      <line id="Line_47" data-name="Line 47" y2="65.473" transform="translate(460.5 158.027)" fill="none" stroke="#333" stroke-width="1"/>
      <line id="Line_48" data-name="Line 48" y1="39.417" transform="translate(472.5 163.75)" fill="none" stroke="#333" stroke-width="1"/>
      <line id="Line_49" data-name="Line 49" y1="62.701" transform="translate(484.5 176.132)" fill="none" stroke="#333" stroke-width="1"/>
      <line id="Line_50" data-name="Line 50" y1="44" transform="translate(496.5 220.5)" fill="none" stroke="#333" stroke-width="1"/>
      <line id="Line_51" data-name="Line 51" y2="32" transform="translate(508.5 254.833)" fill="none" stroke="#333" stroke-width="1"/>
      <line id="Line_52" data-name="Line 52" y1="64.463" transform="translate(520.5 220.5)" fill="none" stroke="#333" stroke-width="1"/>
      <line id="Line_53" data-name="Line 53" y1="25.666" transform="translate(532.5 220.5)" fill="none" stroke="#333" stroke-width="1"/>
      <line id="Line_54" data-name="Line 54" y1="40.099" transform="translate(544.5 235.166)" fill="none" stroke="#333" stroke-width="1"/>
      <line id="Line_55" data-name="Line 55" y1="31.846" transform="translate(556.5 250.117)" fill="none" stroke="#333" stroke-width="1"/>
      <line id="Line_56" data-name="Line 56" y1="44.718" transform="translate(568.5 194.115)" fill="none" stroke="#333" stroke-width="1"/>
      <line id="Line_57" data-name="Line 57" y2="38.405" transform="translate(580.5 193.094)" fill="none" stroke="#333" stroke-width="1"/>
      <line id="Line_58" data-name="Line 58" y1="53.998" transform="translate(592.5 176.132)" fill="none" stroke="#333" stroke-width="1"/>
      <line id="Line_59" data-name="Line 59" y2="36.624" transform="translate(604.5 194.875)" fill="none" stroke="#333" stroke-width="1"/>
      <line id="Line_60" data-name="Line 60" y1="53.834" transform="translate(616.5 151.833)" fill="none" stroke="#333" stroke-width="1"/>
      <line id="Line_61" data-name="Line 61" y1="41.86" transform="translate(628.5 114.39)" fill="none" stroke="#333" stroke-width="1"/>
      <line id="Line_62" data-name="Line 62" y2="35.084" transform="translate(640.5 120.166)" fill="none" stroke="#333" stroke-width="1"/>
      <line id="Line_63" data-name="Line 63" y2="68.323" transform="translate(652.5 131.253)" fill="none" stroke="#333" stroke-width="1"/>
      <line id="Line_64" data-name="Line 64" y1="24.892" transform="translate(664.5 88.498)" fill="none" stroke="#333" stroke-width="1"/>
      <line id="Line_65" data-name="Line 65" y2="63.878" transform="translate(676.5 64.165)" fill="none" stroke="#333" stroke-width="1"/>
      <line id="Line_66" data-name="Line 66" y2="43.333" transform="translate(688.5 48.832)" fill="none" stroke="#333" stroke-width="1"/>
      <line id="Line_67" data-name="Line 67" y2="41" transform="translate(700.5 32.832)" fill="none" stroke="#333" stroke-width="1"/>
      <line id="Line_68" data-name="Line 68" y2="53.478" transform="translate(712.5 55.02)" fill="none" stroke="#333" stroke-width="1"/>
    </g>
    <g id="Layer_1" transform="translate(-14330.265 -21151.834)">
      <rect id="Rectangle_203" data-name="Rectangle 203" width="7" height="29.334" transform="translate(49 153.332)" fill="#ed454a"/>
      <rect id="Rectangle_204" data-name="Rectangle 204" width="7" height="12.334" transform="translate(61 170.332)" fill="#8cc63f"/>
      <rect id="Rectangle_205" data-name="Rectangle 205" width="7" height="51.916" transform="translate(73 174.25)" fill="#ed454a"/>
      <rect id="Rectangle_206" data-name="Rectangle 206" width="7" height="79.832" transform="translate(193 90.5)" fill="#ed454a"/>
      <rect id="Rectangle_207" data-name="Rectangle 207" width="7" height="39.127" transform="translate(97 227.373)" fill="#ed454a"/>
      <rect id="Rectangle_208" data-name="Rectangle 208" width="7" height="14.5" transform="translate(109 248.5)" fill="#8cc63f"/>
      <rect id="Rectangle_209" data-name="Rectangle 209" width="7" height="9.633" transform="translate(121 224.617)" fill="#8cc63f"/>
      <rect id="Rectangle_210" data-name="Rectangle 210" width="7" height="14.439" transform="translate(133 217.75)" fill="#ed454a"/>
      <rect id="Rectangle_211" data-name="Rectangle 211" width="7" height="22" transform="translate(217 174.25)" fill="#ed454a"/>
      <rect id="Rectangle_212" data-name="Rectangle 212" width="7" height="22" transform="translate(277 149)" fill="#ed454a"/>
      <rect id="Rectangle_213" data-name="Rectangle 213" width="7" height="7.583" transform="translate(325 145.25)" fill="#ed454a"/>
      <rect id="Rectangle_214" data-name="Rectangle 214" width="7" height="7.583" transform="translate(385 169.458)" fill="#ed454a"/>
      <rect id="Rectangle_215" data-name="Rectangle 215" width="7" height="26.459" transform="translate(409 168.416)" fill="#ed454a"/>
      <rect id="Rectangle_216" data-name="Rectangle 216" width="7" height="9.355" transform="translate(433 184.145)" fill="#ed454a"/>
      <rect id="Rectangle_217" data-name="Rectangle 217" width="7" height="8.223" transform="translate(457 186.652)" fill="#ed454a"/>
      <rect id="Rectangle_218" data-name="Rectangle 218" width="7" height="8.223" transform="translate(553 269.697)" fill="#ed454a"/>
      <rect id="Rectangle_219" data-name="Rectangle 219" width="7" height="6.42" transform="translate(637 124.833)" fill="#ed454a"/>
      <rect id="Rectangle_220" data-name="Rectangle 220" width="7" height="16.771" transform="translate(709 62.728)" fill="#ed454a"/>
      <rect id="Rectangle_221" data-name="Rectangle 221" width="7" height="11.975" transform="translate(529 226.858)" fill="#ed454a"/>
      <rect id="Rectangle_222" data-name="Rectangle 222" width="7" height="25.284" transform="translate(481 201.655)" fill="#ed454a"/>
      <rect id="Rectangle_223" data-name="Rectangle 223" width="7" height="31.767" transform="translate(493 227.548)" fill="#ed454a"/>
      <rect id="Rectangle_224" data-name="Rectangle 224" width="7" height="28.068" transform="translate(541 243.432)" fill="#ed454a"/>
      <rect id="Rectangle_225" data-name="Rectangle 225" width="7" height="26.596" transform="translate(589 200.263)" fill="#ed454a"/>
      <rect id="Rectangle_226" data-name="Rectangle 226" width="7" height="60.471" transform="translate(649 135.404)" fill="#ed454a"/>
      <rect id="Rectangle_227" data-name="Rectangle 227" width="7" height="26.596" transform="translate(601 197.931)" fill="#8cc63f"/>
      <rect id="Rectangle_228" data-name="Rectangle 228" width="7" height="39.95" transform="translate(613 160)" fill="#8cc63f"/>
      <rect id="Rectangle_229" data-name="Rectangle 229" width="7" height="32" transform="translate(625 121.5)" fill="#8cc63f"/>
      <rect id="Rectangle_230" data-name="Rectangle 230" width="7" height="57" transform="translate(661 96.5)" fill="#8cc63f"/>
      <rect id="Rectangle_231" data-name="Rectangle 231" width="7" height="31.79" transform="translate(673 71.043)" fill="#8cc63f"/>
      <rect id="Rectangle_232" data-name="Rectangle 232" width="7" height="31.876" transform="translate(697 39.167)" fill="#8cc63f"/>
      <rect id="Rectangle_233" data-name="Rectangle 233" width="7" height="10.21" transform="translate(685 60.833)" fill="#8cc63f"/>
      <rect id="Rectangle_234" data-name="Rectangle 234" width="7" height="24.53" transform="translate(505 257.433)" fill="#ed454a"/>
      <rect id="Rectangle_235" data-name="Rectangle 235" width="7" height="50.295" transform="translate(517 224.97)" fill="#8cc63f"/>
      <rect id="Rectangle_236" data-name="Rectangle 236" width="7" height="32.859" transform="translate(565 199.986)" fill="#8cc63f"/>
      <rect id="Rectangle_237" data-name="Rectangle 237" width="7" height="7.181" transform="translate(577 195.986)" fill="#8cc63f"/>
      <rect id="Rectangle_238" data-name="Rectangle 238" width="7" height="4.111" transform="translate(469 195.875)" fill="#ed454a"/>
      <rect id="Rectangle_239" data-name="Rectangle 239" width="7" height="10.722" transform="translate(349 105.778)" fill="#ed454a"/>
      <rect id="Rectangle_240" data-name="Rectangle 240" width="7" height="69.611" transform="translate(361 111.139)" fill="#ed454a"/>
      <rect id="Rectangle_241" data-name="Rectangle 241" width="7" height="45.36" transform="translate(337 113.39)" fill="#8cc63f"/>
      <rect id="Rectangle_242" data-name="Rectangle 242" width="7" height="25.5" transform="translate(289 168)" fill="#ed454a"/>
      <rect id="Rectangle_243" data-name="Rectangle 243" width="7" height="45.593" transform="translate(313 142.574)" fill="#8cc63f"/>
      <rect id="Rectangle_244" data-name="Rectangle 244" width="7" height="1.166" transform="translate(301 191.5)" fill="#ed454a"/>
      <rect id="Rectangle_245" data-name="Rectangle 245" width="7" height="1.166" transform="translate(373 168.416)" fill="#8cc63f"/>
      <rect id="Rectangle_246" data-name="Rectangle 246" width="7" height="2.263" transform="translate(397 176.132)" fill="#8cc63f"/>
      <rect id="Rectangle_247" data-name="Rectangle 247" width="7" height="7.186" transform="translate(421 184.145)" fill="#8cc63f"/>
      <rect id="Rectangle_248" data-name="Rectangle 248" width="7" height="9.852" transform="translate(445 182.563)" fill="#8cc63f"/>
      <rect id="Rectangle_249" data-name="Rectangle 249" width="7" height="29.25" transform="translate(229 193.5)" fill="#ed454a"/>
      <rect id="Rectangle_250" data-name="Rectangle 250" width="7" height="19.248" transform="translate(241 208.125)" fill="#8cc63f"/>
      <rect id="Rectangle_251" data-name="Rectangle 251" width="7" height="16.845" transform="translate(253 208.125)" fill="#ed454a"/>
      <rect id="Rectangle_252" data-name="Rectangle 252" width="7" height="30.811" transform="translate(265 232.189)" fill="#ed454a"/>
      <rect id="Rectangle_253" data-name="Rectangle 253" width="7" height="71.75" transform="translate(145 164.5)" fill="#8cc63f"/>
      <rect id="Rectangle_254" data-name="Rectangle 254" width="7" height="46.926" transform="translate(157 124.833)" fill="#8cc63f"/>
      <rect id="Rectangle_255" data-name="Rectangle 255" width="7" height="15.223" transform="translate(169 98.167)" fill="#8cc63f"/>
      <rect id="Rectangle_256" data-name="Rectangle 256" width="7" height="3.299" transform="translate(181 92.816)" fill="#8cc63f"/>
      <rect id="Rectangle_257" data-name="Rectangle 257" width="7" height="5.513" transform="translate(85 224.617)" fill="#ed454a"/>
      <rect id="Rectangle_258" data-name="Rectangle 258" width="7" height="2.667" transform="translate(205 168.999)" fill="#ed454a"/>
    </g>
  </g>
</svg>
