<svg xmlns="http://www.w3.org/2000/svg" width="36.811" height="42.148" viewBox="0 0 36.811 42.148">
  <g id="ai-icon" transform="translate(-25.932 -218.357)">
    <path id="Path_2886" data-name="Path 2886" d="M-12863.068-16714.291l.583-21,18.213-10.35,18.015,10.922-.237,21.08-18.491,10.146Z" transform="translate(12889 16964)" fill="#0467b1"/>
    <g id="_76e58bae9742bebe378287b8a75cf805" data-name="76e58bae9742bebe378287b8a75cf805" transform="translate(22 211.761)">
      <g id="Group_129" data-name="Group 129" transform="translate(10 15.376)">
        <path id="Path_2855" data-name="Path 2855" d="M21.391-234.6c-.139.02-.586.09-.994.149a12.515,12.515,0,0,0-6.76,3.48,12.254,12.254,0,0,0-.268,17.149,12.44,12.44,0,0,0,7,3.768,13.857,13.857,0,0,0,6.094-.447,12.38,12.38,0,0,0,7.894-15.688,12.447,12.447,0,0,0-11.473-8.421A12.847,12.847,0,0,0,21.391-234.6Zm3.032,1.75a11.474,11.474,0,0,1,6.074,3.291A10.81,10.81,0,0,1,33.022-219.5a13.071,13.071,0,0,1-1.77,3.629,11.155,11.155,0,0,1-6.164,4.1,8.36,8.36,0,0,1-2.555.209,7.865,7.865,0,0,1-2.764-.258,13.265,13.265,0,0,1-3.46-1.561,14.006,14.006,0,0,1-2.853-2.883,10.2,10.2,0,0,1-1.78-5.428,9.8,9.8,0,0,1,.467-3.837A10.884,10.884,0,0,1,24.423-232.85Z" transform="translate(-10 234.624)" fill="#f3f3f6"/>
        <path id="Path_2856" data-name="Path 2856" d="M661.795,25.285a1.313,1.313,0,0,0,.537,2.267,1.359,1.359,0,0,0,1.183-.428,1.639,1.639,0,0,0,.119-1.481A1.25,1.25,0,0,0,661.795,25.285Z" transform="translate(-644.727 -18.402)" fill="#f3f3f6"/>
        <path id="Path_2857" data-name="Path 2857" d="M259.281,46.207c-.835,3.052-1.511,5.607-1.511,5.677,0,.1.268.119,1.163.1l1.163-.03.348-1.422.348-1.412h2.913l.388,1.442L264.471,52h1.223c.964,0,1.223-.03,1.223-.129,0-.08-.7-2.615-1.541-5.637s-1.541-5.508-1.541-5.527-.686-.04-1.521-.04h-1.521Zm3.46-1.412c.268,1.094.527,2.068.557,2.157.05.169-.04.179-1.034.179H261.17l.318-1.272c.179-.7.408-1.68.507-2.177a7.619,7.619,0,0,1,.209-.895C262.224,42.8,262.463,43.7,262.741,44.8Z" transform="translate(-251.449 -33.647)" fill="#f3f3f6"/>
        <path id="Path_2858" data-name="Path 2858" d="M663.15,161.55c-.04.03-.07,1.889-.07,4.126v4.056h2.287V161.48h-1.074A5.11,5.11,0,0,0,663.15,161.55Z" transform="translate(-646.42 -151.375)" fill="#f3f3f6"/>
      </g>
    </g>
  </g>
</svg>
