<svg xmlns="http://www.w3.org/2000/svg" width="41" height="41" viewBox="0 0 41 41">
  <g id="At-icon" transform="translate(-24 -134)">
    <circle id="Ellipse_39" data-name="Ellipse 39" cx="20.5" cy="20.5" r="20.5" transform="translate(24 134)" fill="#0466b0"/>
    <path id="path2987" d="M7.107,30.105V27.929H5.329V10.423H7.107V6.1h.451v4.32H9.336V27.929H7.558v4.353H7.107V30.105Zm5.141-6.983v-.833H10.47l0-3.347,0-3.347h1.774V13.939h.45l0,.827,0,.827.885,0,.885,0,0,3.347,0,3.347H12.7v1.665h-.451v-.833ZM14.2,19V16.03H10.776v5.945H14.2Zm3.242,2.691V20.27H15.667V8.822h1.778V6H17.9V8.822h1.768c.008,0,.01,1.148.01,5.723V20.27l-.887,0-.887,0,0,1.422,0,1.422h-.45V21.694Zm1.923-7.176V9.135H16.037V19.9h3.331Z" transform="translate(31.999 135.36)" fill="#fff"/>
    <path id="Path_2850" data-name="Path 2850" d="M6157.051-3220.944l.669,2.142-21.626,12.73v-5.393l-16.382,10.521-.954-2.256-.614-2.682,21.493-13.913v6.505l16.354-9.438Z" transform="translate(-6093.681 3367)" fill="#f2f2f5"/>
  </g>
</svg>
