<svg xmlns="http://www.w3.org/2000/svg" width="27.722" height="27.722" viewBox="0 0 27.722 27.722">
  <path id="awesome-headset" d="M10.4,11.262A1.733,1.733,0,0,0,8.663,9.529H7.8a3.465,3.465,0,0,0-3.465,3.465v2.6A3.465,3.465,0,0,0,7.8,19.059h.866A1.733,1.733,0,0,0,10.4,17.326Zm9.529,7.8a3.465,3.465,0,0,0,3.465-3.465v-2.6a3.465,3.465,0,0,0-3.465-3.465h-.866a1.733,1.733,0,0,0-1.733,1.733v6.064a1.733,1.733,0,0,0,1.733,1.733ZM13.861,0C6.128,0,.248,6.434,0,13.861v.866a.866.866,0,0,0,.866.866h.866a.866.866,0,0,0,.866-.866v-.866a11.262,11.262,0,0,1,22.524,0h-.006c0,.132.006,8.973.006,8.973a2.289,2.289,0,0,1-2.289,2.289H17.326a2.6,2.6,0,0,0-2.6-2.6H12.995a2.6,2.6,0,1,0,0,5.2h9.839a4.888,4.888,0,0,0,4.888-4.888V13.861C27.474,6.434,21.594,0,13.861,0Z" fill="#bababa"/>
</svg>
