<svg xmlns="http://www.w3.org/2000/svg" width="28.939" height="23.329" viewBox="0 0 28.939 23.329">
  <path id="bank-account-svgrepo-com" d="M29.5,25.617v.955H.558v-.953a.925.925,0,0,1,.924-.925h.929q-.005-.046-.006-.093v-.861a.925.925,0,0,1,.924-.924H4.715V10.867H2.405A1.077,1.077,0,0,1,1.977,8.8L14.6,3.331a1.077,1.077,0,0,1,.855,0L28.078,8.8a1.077,1.077,0,0,1-.428,2.067H25.34V22.813h1.386a.925.925,0,0,1,.924.924V24.6a.862.862,0,0,1-.006.093h.929a.925.925,0,0,1,.924.924Zm-22.628-2.8h4V13.006h-4ZM7.6,8.713H22.455l-7.427-3.22Zm5.425,4.3v9.805h4V13.008Zm10.159,9.805V13.008h-4v9.807Z" transform="translate(-0.558 -3.242)"/>
</svg>
