<svg xmlns="http://www.w3.org/2000/svg" width="26.531" height="19.214" viewBox="0 0 26.531 19.214">
  <path id="email-icon" d="M1.563,0H25.068a1.528,1.528,0,0,1,1.513,1.523V17.678a1.513,1.513,0,0,1-.264.864.6.6,0,0,1-.143.216.566.566,0,0,1-.143.1,1.513,1.513,0,0,1-.975.357H1.563A1.528,1.528,0,0,1,.05,17.7V1.523A1.528,1.528,0,0,1,1.563,0ZM1.5,17.036,9.445,8.777,1.5,2.061V17.036Zm9.145-7.228L2.15,18.032H24.407L16.293,9.808,13.916,11.8h0a.583.583,0,0,1-.745,0Zm6.828-1.046L25.133,17.1V1.988ZM2.245,1.169l11.275,9.138L24.3,1.169Z" transform="translate(-0.05)"/>
</svg>
