<svg xmlns="http://www.w3.org/2000/svg" width="29" height="29" viewBox="0 0 29 29">
  <path id="Exclusion_3" data-name="Exclusion 3" d="M29,29H0V0H29V29ZM14.56,26.279h.024a10.481,10.481,0,0,0,6.245-3.318,14.975,14.975,0,0,0,3.718-6.441c.655-2.487.367-10.818.364-10.905l-.015,0c-.221.023-.684.061-1.309.061a13.669,13.669,0,0,1-3.957-.556,20.317,20.317,0,0,1-5.213-2.77A14.584,14.584,0,0,1,9.8,4.928a19.282,19.282,0,0,1-5.287.693C4.195,5.622,4,5.614,4,5.614A84.1,84.1,0,0,0,4.165,16.1a11.321,11.321,0,0,0,2.628,5.645L8.128,20.68l0,0A12.04,12.04,0,0,1,5.772,16.1c-.475-2.354-.209-9.015-.206-9.082.006,0,.252.018.655.018a13.484,13.484,0,0,0,3.921-.558,16.457,16.457,0,0,0,4.275-2.3,19.933,19.933,0,0,0,4.5,2.3,12.9,12.9,0,0,0,3.777.558c.369,0,.6-.017.606-.018l0,.032c.035,1.123.187,6.837-.267,9.05a13.571,13.571,0,0,1-3.985,6.382,7.81,7.81,0,0,1-4.35,2.273c-.049,0-.1,0-.143-.006a7.182,7.182,0,0,1-3.54-1.106,2.839,2.839,0,0,1-.878-.88L8.931,24.011c.027.021,2.856,2.268,5.62,2.268ZM9.168,12.9h0L7.947,14.147l5.529,5.395,7.577-8.87L19.577,9.459l-6.1,7.526L9.168,12.9Z" fill="#bababa"/>
</svg>
