<svg xmlns="http://www.w3.org/2000/svg" width="21.787" height="23.015" viewBox="0 0 21.787 23.015">
  <path id="home-outline-icon" d="M949.77,3772.015c-4.022,0-7.778-.438-8.372-.976-.768-.7-2.2-5.253-2.379-9.132-.107-2.286.244-3.94,1.014-4.781,2.683-2.932,7.314-7.081,9.207-7.126h.03c1.112,0,3.085,1.385,4.544,2.547a45.218,45.218,0,0,1,4.919,4.58c1.431,1.575,1.071,5.135.728,7.117a21.223,21.223,0,0,1-2.071,6.5C956.864,3771.54,954.015,3772.015,949.77,3772.015Zm-1.269-8.271a.5.5,0,0,0-.5.5v4a.5.5,0,0,0,.5.5h1a.5.5,0,0,0,.5-.5v-4a.5.5,0,0,0-.5-.5Z" transform="translate(-938.499 -3749.5)" fill="none" stroke="#7d8691" stroke-width="1"/>
</svg>
