<svg xmlns="http://www.w3.org/2000/svg" width="20.477" height="20.471" viewBox="0 0 20.477 20.471">
  <path id="Icon_awesome-headset" data-name="Icon awesome-headset" d="M7.677,8.316A1.28,1.28,0,0,0,6.4,7.037H5.76A2.559,2.559,0,0,0,3.2,9.6v1.919a2.559,2.559,0,0,0,2.559,2.559H6.4A1.28,1.28,0,0,0,7.679,12.8Zm7.037,5.757a2.559,2.559,0,0,0,2.559-2.559V9.6a2.559,2.559,0,0,0-2.559-2.559h-.64A1.28,1.28,0,0,0,12.795,8.32V12.8a1.28,1.28,0,0,0,1.279,1.279ZM10.235,0A10.43,10.43,0,0,0,0,10.235v.64a.64.64,0,0,0,.64.64h.64a.64.64,0,0,0,.64-.64v-.64a8.316,8.316,0,1,1,16.632,0h0v6.626a1.69,1.69,0,0,1-1.69,1.69H12.794a1.919,1.919,0,0,0-1.919-1.919H9.6a1.919,1.919,0,0,0,0,3.838h7.266a3.61,3.61,0,0,0,3.61-3.61V10.235A10.43,10.43,0,0,0,10.235,0Z" fill="#79838d"/>
</svg>
