<svg xmlns="http://www.w3.org/2000/svg" width="18.526" height="22.863" viewBox="0 0 18.526 22.863">
  <g id="market-icon" transform="translate(-109 -782.796)">
    <path id="market-icon-2" data-name="market-icon" d="M15.422,22.863a.56.56,0,0,1-.56-.56V7.711a.56.56,0,0,1,.56-.56h2.545a.56.56,0,0,1,.56.56V22.3a.56.56,0,0,1-.56.56Zm.56-1.119h1.426V8.27H15.981Zm-5.513,1.119a.56.56,0,0,1-.56-.56V10.923a.56.56,0,0,1,.56-.56h2.545a.56.56,0,0,1,.56.56V22.3a.56.56,0,0,1-.56.56Zm.56-1.119h1.426V11.482H11.027ZM5.513,22.863a.56.56,0,0,1-.56-.56V13.029a.56.56,0,0,1,.56-.56H8.057a.56.56,0,0,1,.56.56V22.3a.56.56,0,0,1-.56.56Zm.56-1.119H7.5V13.588H6.073ZM.56,22.863A.56.56,0,0,1,0,22.3v-7.3a.56.56,0,0,1,.56-.56H3.105a.56.56,0,0,1,.56.56v7.3a.56.56,0,0,1-.56.56Zm.56-1.119H2.545V15.567H1.119ZM0,9.78a.56.56,0,0,1,.56-.56C9.206,9.221,13,5.4,16.638,1.119H14.864a.56.56,0,0,1,0-1.119H17.9a.56.56,0,0,1,.5.56V3.525a.56.56,0,1,1-1.119,0V2.085C13.656,6.322,9.521,10.34.56,10.34A.56.56,0,0,1,0,9.78Z" transform="translate(109 782.796)" fill="#0467b1"/>
    <path id="Path_2882" data-name="Path 2882" d="M-6273.244-16166l-.143,6.816,2.245.081.083-6.9Z" transform="translate(6383 16964)" fill="#0467b1"/>
    <path id="Path_2883" data-name="Path 2883" d="M-6273.244-16166l-.143,8.633,2.245.1.083-8.736Z" transform="translate(6388 16962.16)" fill="#0467b1"/>
    <path id="Path_2884" data-name="Path 2884" d="M-6273.244-16166.006l-.143,10.609,2.245.127.083-10.736Z" transform="translate(6393 16960.16)" fill="#0467b1"/>
  </g>
</svg>
