<svg xmlns="http://www.w3.org/2000/svg" width="22.749" height="22.79" viewBox="0 0 22.749 22.79">
  <path id="Icon_feather-phone-call" data-name="Icon feather-phone-call" d="M23.914,18.564v3.129A2.086,2.086,0,0,1,21.64,23.78a20.644,20.644,0,0,1-9-3.2,20.342,20.342,0,0,1-6.259-6.259,20.644,20.644,0,0,1-3.2-9.044A2.086,2.086,0,0,1,5.252,3H8.382a2.086,2.086,0,0,1,2.086,1.794,13.394,13.394,0,0,0,.73,2.931,2.086,2.086,0,0,1-.469,2.2c-1.2,1.537-3.835,2.808-3.58,3.342a12.082,12.082,0,0,0,2.579,3.687,34.032,34.032,0,0,0,3.886,2.757c.183.133,1.577-2.47,3.374-3.526a2.086,2.086,0,0,1,2.2-.469,13.394,13.394,0,0,0,2.931.73A2.086,2.086,0,0,1,23.914,18.564Z" transform="translate(-2.167 -2)" fill="none" stroke="#000" stroke-linecap="round" stroke-linejoin="round" stroke-width="2"/>
</svg>
