<svg xmlns="http://www.w3.org/2000/svg" width="25.084" height="21.951" viewBox="0 0 25.084 21.951">
  <g id="pool-outline-icon" transform="translate(18625.01 18884.016)">
    <path id="Exclusion_3" data-name="Exclusion 3" d="M21.95,21.95H3.136A3.139,3.139,0,0,1,0,18.815V14.3a3.04,3.04,0,0,1,.094-.759L2.885,2.377A3.131,3.131,0,0,1,5.929,0H19.157A3.13,3.13,0,0,1,22.2,2.377l2.793,11.166a3.04,3.04,0,0,1,.092.759v4.513A3.139,3.139,0,0,1,21.95,21.95ZM2.025,14.3v5.948H22.942V14.3h-4l-.808,2.777H6.468L6.255,14.3Zm3.4-11.922L2.885,12.543h3.2a1.576,1.576,0,0,1,1.4.867l.7,1.4a1.554,1.554,0,0,0,1.4.867h5.9a1.578,1.578,0,0,0,1.4-.867l.7-1.4a1.551,1.551,0,0,1,1.4-.867h3.2L19.834,2.377Z" transform="translate(-18625.01 -18884.016)" fill="#79838d"/>
  </g>
</svg>
