<svg xmlns="http://www.w3.org/2000/svg" width="25.088" height="21.951" viewBox="0 0 25.088 21.951">
  <path id="pool-icon" d="M5.929,2.25A3.135,3.135,0,0,0,2.886,4.626L.093,15.793A3.07,3.07,0,0,0,0,16.553v4.513A3.139,3.139,0,0,0,3.136,24.2H21.951a3.139,3.139,0,0,0,3.136-3.136V16.553a3.07,3.07,0,0,0-.093-.759L22.2,4.626A3.135,3.135,0,0,0,19.158,2.25Zm-.5,2.376H19.836L22.2,14.794H19a1.562,1.562,0,0,0-1.4.867l-.7,1.4a1.571,1.571,0,0,1-1.4.867h-5.9a1.562,1.562,0,0,1-1.4-.867l-.7-1.4a1.571,1.571,0,0,0-1.4-.867h-3.2Z" transform="translate(0 -2.25)" fill="#0567b1"/>
</svg>
