<svg xmlns="http://www.w3.org/2000/svg" width="26.533" height="26.533" viewBox="0 0 26.533 26.533">
  <g id="scan-qr-code-4" transform="translate(-0.829 -27.629)">
    <path id="Path_2937" data-name="Path 2937" d="M38.41,27.629H34.8a4.68,4.68,0,0,0-4.68,4.68v3.611a1.658,1.658,0,1,0,3.317,0h0V32.7a1.755,1.755,0,0,1,1.755-1.755h3.22a1.658,1.658,0,1,0,0-3.317Z" transform="translate(-29.289)"/>
    <path id="Path_2938" data-name="Path 2938" d="M642.453,631.676a1.658,1.658,0,0,0-3.317,0h0v3.22a1.755,1.755,0,0,1-1.755,1.755h-3.22a1.658,1.658,0,1,0,0,3.317h3.611a4.68,4.68,0,0,0,4.68-4.68v-3.611h0Z" transform="translate(-615.09 -585.805)"/>
    <path id="Path_2939" data-name="Path 2939" d="M38.41,636.651H35.19a1.755,1.755,0,0,1-1.755-1.755v-3.22h0a1.658,1.658,0,0,0-3.317,0v3.611a4.68,4.68,0,0,0,4.68,4.68H38.41a1.658,1.658,0,1,0,0-3.317Z" transform="translate(-29.289 -585.805)"/>
    <path id="Path_2940" data-name="Path 2940" d="M637.772,27.629h-3.612a1.658,1.658,0,1,0,0,3.317h3.22a1.755,1.755,0,0,1,1.755,1.755v3.22h0a1.658,1.658,0,1,0,3.317,0h0V32.309A4.68,4.68,0,0,0,637.772,27.629Z" transform="translate(-615.09)"/>
    <path id="Path_2941" data-name="Path 2941" d="M18.491,449.3H1.156c-.638,0-1.156.742-1.156,1.658s.517,1.658,1.156,1.658H18.491c.638,0,1.156-.742,1.156-1.658S19.129,449.3,18.491,449.3Z" transform="translate(4.25 -410.063)"/>
  </g>
</svg>
