<svg xmlns="http://www.w3.org/2000/svg" width="19" height="24.752" viewBox="0 0 19 24.752">
  <g id="trade-icon" transform="translate(-121 -787.408)">
    <path id="Path_86" data-name="Path 86" d="M-815.506-2960.2v4.2" transform="translate(939 3750.392)" fill="#fff" stroke="#0467b1" stroke-linecap="round" stroke-width="1"/>
    <path id="Path_87" data-name="Path 87" d="M-815.506-2960.2v3.618" transform="translate(946.006 3767.355)" fill="#fff" stroke="#0467b1" stroke-linecap="round" stroke-width="1"/>
    <path id="Path_88" data-name="Path 88" d="M-815.506-2960.2v10.177" transform="translate(953.006 3761.684)" fill="#fff" stroke="#0467b1" stroke-linecap="round" stroke-width="1"/>
    <g id="Rectangle_68" data-name="Rectangle 68" transform="translate(121 794)" fill="#fff" stroke="#0467b1" stroke-width="1">
      <rect width="5" height="8" rx="1" stroke="none"/>
      <rect x="0.5" y="0.5" width="4" height="7" rx="0.5" fill="none"/>
    </g>
    <path id="Path_89" data-name="Path 89" d="M-815.506-2960.2v6.151" transform="translate(939 3761.683)" fill="#fff" stroke="#0467b1" stroke-linecap="round" stroke-width="1"/>
    <g id="Rectangle_69" data-name="Rectangle 69" transform="translate(128 795)" fill="#0467b1" stroke="#0467b1" stroke-width="1.5">
      <rect width="5" height="13" rx="1" stroke="none"/>
      <rect x="0.75" y="0.75" width="3.5" height="11.5" rx="0.25" fill="none"/>
    </g>
    <g id="Rectangle_70" data-name="Rectangle 70" transform="translate(135 792)" fill="#0467b1" stroke="#0467b1" stroke-width="1.5">
      <rect width="5" height="10" rx="1" stroke="none"/>
      <rect x="0.75" y="0.75" width="3.5" height="8.5" rx="0.25" fill="none"/>
    </g>
    <path id="Path_2880" data-name="Path 2880" d="M-815.506-2960.2v3.558" transform="translate(946.006 3752.393)" fill="#fff" stroke="#0467b1" stroke-linecap="round" stroke-width="1"/>
    <path id="Path_2881" data-name="Path 2881" d="M-815.506-2960.2v5.057" transform="translate(953.006 3748.109)" fill="#fff" stroke="#0467b1" stroke-linecap="round" stroke-width="1"/>
  </g>
</svg>
