<svg xmlns="http://www.w3.org/2000/svg" width="25.651" height="25.651" viewBox="0 0 25.651 25.651">
  <g id="_2f70f4d568ca9b40d5b97b228c9ee736" data-name="2f70f4d568ca9b40d5b97b228c9ee736" transform="translate(-10 -10)">
    <path id="Path_2805" data-name="Path 2805" d="M22.825,10A12.825,12.825,0,1,0,35.651,22.825,12.826,12.826,0,0,0,22.825,10Zm0,24.5A11.674,11.674,0,1,1,34.5,22.825,11.684,11.684,0,0,1,22.825,34.5Z" fill="#7d8691"/>
    <path id="Path_2806" data-name="Path 2806" d="M189.549,328.7l.424,2.07H176.9l-.7,1.115h14l3.549.005Z" transform="translate(-161.85 -310.358)" fill="#7d8691"/>
    <path id="Path_2807" data-name="Path 2807" d="M160.147,549.605h-14L142.6,549.6l4.2,3.191-.424-2.07h13.074Z" transform="translate(-129.129 -525.476)" fill="#7d8691"/>
  </g>
</svg>
