<svg xmlns="http://www.w3.org/2000/svg" width="12.454" height="12.454" viewBox="0 0 12.454 12.454">
  <g id="Free_Instagram_Verified_Icon_Clipart_SVG_" data-name="Free Instagram Verified Icon Clipart (SVG)" transform="translate(-205.674 -205.674)">
    <g id="Group_140" data-name="Group 140" transform="translate(205.674 205.674)">
      <g id="Group_138" data-name="Group 138" transform="translate(0 0)">
        <path id="Path_2868" data-name="Path 2868" d="M213.568,205.674l1.017,1.574,1.874.093.094,1.874,1.574,1.016-.854,1.67.854,1.667-1.574,1.017-.091,1.874-1.874.094-1.017,1.574-1.67-.854-1.667.854-1.017-1.574-1.873-.091-.1-1.874-1.574-1.017.854-1.67-.854-1.667,1.574-1.017.093-1.873,1.874-.1,1.016-1.574,1.67.854Z" transform="translate(-205.674 -205.674)" fill="#42a5f5"/>
      </g>
      <g id="Group_139" data-name="Group 139" transform="translate(3.528 4.379)">
        <path id="Path_2869" data-name="Path 2869" d="M301.847,326.431l-1.925-1.925.629-.627,1.308,1.3,2.834-2.749.621.638Z" transform="translate(-299.922 -322.434)" fill="#fff"/>
      </g>
    </g>
  </g>
</svg>
