<svg xmlns="http://www.w3.org/2000/svg" width="31.169" height="31.282" viewBox="0 0 31.169 31.282">
  <g id="Group_232" data-name="Group 232" transform="translate(-6019.831 1639)">
    <g id="Path_2936" data-name="Path 2936" transform="translate(6020 -1639)" fill="none">
      <path d="M15.5,0a15.5,15.5,0,0,1,0,31,17.45,17.45,0,0,1-7.123-1.7L-.169,31.282l2.25-8.02A15.16,15.16,0,0,1,0,15.5,15.5,15.5,0,0,1,15.5,0Z" stroke="none"/>
      <path d="M 15.50000286102295 2 C 11.89402389526367 2 8.503873825073242 3.40424919128418 5.954063415527344 5.954059600830078 C 3.404243469238281 8.503870010375977 2.000003814697266 11.89402008056641 2.000003814697266 15.49999904632568 C 2.000003814697266 17.93642807006836 2.635463714599609 20.32391929626465 3.789333343505859 22.22267913818359 L 4.240472793579102 22.96504974365234 L 2.667854309082031 28.57176399230957 L 8.598232269287109 27.19843864440918 L 9.223602294921875 27.49065971374512 C 11.27644348144531 28.44986915588379 13.5641040802002 29 15.50000286102295 29 C 19.10598373413086 29 22.49613189697266 27.59574890136719 25.04594421386719 25.04593849182129 C 27.59575271606445 22.49612808227539 29.00000381469727 19.10597991943359 29.00000381469727 15.49999904632568 C 29.00000381469727 11.89402008056641 27.59575271606445 8.503870010375977 25.04594421386719 5.954059600830078 C 22.49613189697266 3.40424919128418 19.10598373413086 2 15.50000286102295 2 M 15.50000286102295 0 C 24.0604133605957 0 31.00000381469727 6.93958854675293 31.00000381469727 15.49999904632568 C 31.00000381469727 24.06040954589844 24.0604133605957 31 15.50000286102295 31 C 13.19408226013184 31 10.62576293945312 30.35338973999023 8.376953125 29.30260848999023 L -0.1694374084472656 31.28173828125 L 2.080183029174805 23.26132965087891 C 0.8164329528808594 21.18175888061523 3.814697265625e-06 18.43621826171875 3.814697265625e-06 15.49999904632568 C 3.814697265625e-06 6.93958854675293 6.939582824707031 0 15.50000286102295 0 Z" stroke="none" fill="#fff"/>
    </g>
    <path id="Icon_material-round-person" data-name="Icon material-round-person" d="M11.706,11.985a2.924,2.924,0,0,0,2.853-2.992A2.924,2.924,0,0,0,11.706,6,2.924,2.924,0,0,0,8.853,8.992,2.924,2.924,0,0,0,11.706,11.985Zm0,1.159C9.243,13.163,6,14.484,6,16.474v.748a.733.733,0,0,0,.713.748,39.936,39.936,0,0,0,4.993.361A39.936,39.936,0,0,0,16.7,17.97a.733.733,0,0,0,.713-.748v-.748C17.412,14.484,14.169,13.125,11.706,13.144Z" transform="translate(6023.517 -1633.844)" fill="#fff"/>
    <path id="Icon_material-round-person-2" data-name="Icon material-round-person-2" d="M16.039,13.77a7.067,7.067,0,0,0-3.946-.915,11.187,11.187,0,0,0-2.246.245,3.26,3.26,0,0,0-.327,2.426c.2.65,1.473.672,2.405,1.786S12.7,19.98,13.25,19.98c2.168-.213,3.356-.156,3.356-.994V17.394C16.607,16.541,16.8,14.158,16.039,13.77ZM10.4,12.093h3.382a1.519,1.519,0,0,0,1.508-1.721l-.244-1.866a3,3,0,0,0-5.91,0l-.172,1.32c-.063.474.474.527.7,1.15C9.759,11.373,9.78,12.093,10.4,12.093Z" transform="translate(6028.836 -1636.865)" fill="#fff"/>
    <path id="Icon_material-round-person-2-2" data-name="Icon material-round-person" d="M11.706,11.985c.875,0,1.063-.707,1.769-1.609.237-.268,1.084-.647,1.084-1.383A2.924,2.924,0,0,0,11.706,6,2.924,2.924,0,0,0,8.853,8.992,2.924,2.924,0,0,0,11.706,11.985Zm0,.565c-2.463.019-5.228,1.92-5.228,3.91v2.224a.763.763,0,0,0,.819.668,8.412,8.412,0,0,0,2.51.534,5.9,5.9,0,0,1,1.468-2.636c1.146-1.14,3.072-1.445,3.114-1.925s-.608-.741-1.278-1.434S12.7,12.542,11.706,12.55Z" transform="translate(6018.811 -1636.865)" fill="#fff"/>
  </g>
</svg>
