<svg xmlns="http://www.w3.org/2000/svg" width="1476.488" height="333.889" viewBox="0 0 1476.488 333.889">
  <g id="darklogowithtext" transform="translate(21625.316 22662.67)">
    <g id="Group_2" data-name="Group 2" transform="translate(2229 233)">
      <path id="Path_1" data-name="Path 1" d="M-22348.256-22842.141l57.631-57.527-.068-147.727,41.545-42.453-.207,148.82,42.275-42.012v-74.7l41.8-42.18v74.816l124.512-124.566h-220.5l-87.049,86.035Z" transform="translate(-1506 253.998)" fill="#14e499"/>
      <path id="Path_2" data-name="Path 2" d="M-22040.834-23149.664l-57.631,57.527.07,147.727-41.547,42.449.207-148.816-42.275,42.012v74.7l-41.8,42.18v-74.816l-124.512,124.566h220.5l87.049-86.035Z" transform="translate(-1499.34 280.355)" fill="#244855"/>
    </g>
    <path id="Union_1" data-name="Union 1" d="M208.386,231.942V211.148s17.286,1.541,22.6-5.34c6.96-7.308,11.923-24.908,11.923-24.908L197.656,53.844h30.169l27.826,89.475,27.4-89.475h28.78L264.25,191.982s-7.376,25.712-21.341,35.7c-6.505,4.652-14.438,5.895-21.06,5.895a55.57,55.57,0,0,1-13.464-1.634ZM596.6,184.707a64.016,64.016,0,0,1-21.434-3.831,59.745,59.745,0,0,1-24.2-15.443,54.939,54.939,0,0,1-11.475-19.139,64.5,64.5,0,0,1-3.443-16.287,47.272,47.272,0,0,1-.105-6.885,101.749,101.749,0,0,1,1.793-20.457,88.122,88.122,0,0,1,5.5-18.508,59.063,59.063,0,0,1,11.459-17.751,47.02,47.02,0,0,1,15.8-10.871A58.651,58.651,0,0,1,593.3,51.293h.852a57.718,57.718,0,0,1,22.707,4.524A45.187,45.187,0,0,1,632.27,66.96a57.441,57.441,0,0,1,10.9,18.422,88.641,88.641,0,0,1,4.715,19.213,105.581,105.581,0,0,1,.8,21.235H563.939a44.226,44.226,0,0,0,2.454,14.751,34.1,34.1,0,0,0,6.845,11.752,31,31,0,0,0,13.948,8.729,35.382,35.382,0,0,0,10.577,1.622,39.648,39.648,0,0,0,13.5-2.473,52.708,52.708,0,0,0,10.776-5.442,56.355,56.355,0,0,0,9.715-7.917l14.169,14.211h0A71.638,71.638,0,0,1,617.169,181a59.675,59.675,0,0,1-20.563,3.691ZM577.944,78.814a31.174,31.174,0,0,0-8.969,11.4,49.684,49.684,0,0,0-3.825,11.4,43.4,43.4,0,0,0-.8,5.183h57.53a45.8,45.8,0,0,0-.991-9.271A41.092,41.092,0,0,0,618.22,89.1a28.365,28.365,0,0,0-5.378-8.164c-4.557-4.733-10.662-7.189-18.137-7.3h-.512a26.151,26.151,0,0,0-16.249,5.183ZM887.7,180.264c-12.654-7.56-13.116-28.513-13.116-28.513V74.819H853.1V54.362h21.477V23.892h26.805V54.357h21.8V74.814h-21.8v76.937s1.086,6.658,7.037,8.879,16.766,0,16.766,0v21.35A94.66,94.66,0,0,1,906,184.133C899.518,184.134,892.666,183.233,887.7,180.264Zm-190.4,2.024a43.994,43.994,0,0,1-13.309-5.883,35.619,35.619,0,0,1-10.43-10.668,40.516,40.516,0,0,1-5.659-16.158,39.755,39.755,0,0,1,.794-16.123,30.375,30.375,0,0,1,6.42-11.894c13.7-15.721,42.415-18.068,58.313-18.068,6.655,0,11.111.415,11.156.422a33.965,33.965,0,0,0,.993-7.171,31.4,31.4,0,0,0-.479-6.914,22.671,22.671,0,0,0-2.654-7.309c-2.895-4.944-7.718-8.268-14.335-9.877a30.9,30.9,0,0,0-7.268-.926,21.716,21.716,0,0,0-10.985,2.825,23.438,23.438,0,0,0-6.937,6.215,29.712,29.712,0,0,0-4.668,9.04H671.218v-.013a34.965,34.965,0,0,1,1.4-5.984,45.905,45.905,0,0,1,6.695-13.192,43.6,43.6,0,0,1,15.756-13.191c7.939-3.98,17.553-6,28.577-6h.194c11.063.023,20.5,2.055,28.049,6.04A37.54,37.54,0,0,1,766.3,70.651a40.493,40.493,0,0,1,5.321,13.167,32.434,32.434,0,0,1,.766,5.982c-.006.585-.664,58.721,0,70.018a65.19,65.19,0,0,0,5.589,21.654H749.124l-2.636-13.229v.011a35.085,35.085,0,0,1-5.8,6.116,40.651,40.651,0,0,1-7.262,4.893,38.929,38.929,0,0,1-10.169,3.657A57.239,57.239,0,0,1,711.6,184.1a56.036,56.036,0,0,1-14.3-1.808Zm17.4-60.074c-3.409.8-8.238,2.363-11.877,5.272a20.1,20.1,0,0,0-7.22,11.785,20.306,20.306,0,0,0,3,14.841,16.4,16.4,0,0,0,7.37,6.359,23.466,23.466,0,0,0,9.6,1.872,35.726,35.726,0,0,0,13.445-2.76,41.784,41.784,0,0,0,11.854-7.622,34.714,34.714,0,0,0,4.153-4.4V121.168H721.294a43.806,43.806,0,0,0-6.6,1.047ZM147.858,182.226l3.669-140-52.362,140H77.98l-52.989-140,4.023,140H0V9.078H38.254l50.187,134.11L139.434,9.078h37.2V182.225Zm877.615-.088V94.166s2.045-16.78-19.549-19.795S975.084,89.7,975.084,89.7v92.436H947.508V0h27.576V69.455s20.6-25.2,50.391-16.45,28.049,41.152,28.049,41.152v87.977Zm-219.136-.292V0h27.434V181.845Zm-349.308-.292-33.7-129.1-35,129.094H360.656L321.108,9.752h29.015l26.995,134.169L411.105,9.752h23.914L468.75,143.921,496.622,9.752h27.432l-40.246,171.8Z" transform="translate(-21202.371 -22590.055)" fill="#244855"/>
  </g>
</svg>
