<svg xmlns="http://www.w3.org/2000/svg" width="1421.051" height="333.881" viewBox="0 0 1421.051 333.881">
  <g id="Group_3" data-name="Group 3" transform="translate(21625.318 22662.666)">
    <g id="Group_2" data-name="Group 2" transform="translate(2229 233)">
      <path id="Path_1" data-name="Path 1" d="M-22348.256-22842.141l57.631-57.527-.068-147.727,41.545-42.453-.207,148.82,42.275-42.012v-74.7l41.8-42.18v74.816l124.512-124.566h-220.5l-87.049,86.035Z" transform="translate(-1506 253.998)" fill="#14e499"/>
      <path id="Path_2" data-name="Path 2" d="M-22040.834-23149.664l-57.631,57.527.07,147.727-41.547,42.449.207-148.816-42.275,42.012v74.7l-41.8,42.18v-74.816l-124.512,124.566h220.5l87.049-86.035Z" transform="translate(-1499.34 280.355)" fill="#fff"/>
    </g>
    <path id="Union_1" data-name="Union 1" d="M197.618,219.957V200.238s16.393,1.461,21.434-5.064c6.6-6.93,11.307-23.621,11.307-23.621L187.443,51.062h28.61l26.388,84.852,25.981-84.852h27.293l-45.119,131s-6.995,24.383-20.238,33.855c-6.169,4.412-13.692,5.59-19.972,5.59A52.7,52.7,0,0,1,197.618,219.957ZM565.77,175.163a60.708,60.708,0,0,1-20.326-3.633,56.658,56.658,0,0,1-22.949-14.645,52.1,52.1,0,0,1-10.882-18.15,61.165,61.165,0,0,1-3.265-15.445,44.825,44.825,0,0,1-.1-6.529,96.485,96.485,0,0,1,1.7-19.4,83.57,83.57,0,0,1,5.212-17.552,56.011,56.011,0,0,1,10.867-16.834,44.59,44.59,0,0,1,14.983-10.309,55.621,55.621,0,0,1,21.63-4.023c.271,0,.535,0,.808,0a54.736,54.736,0,0,1,21.534,4.29A42.853,42.853,0,0,1,599.6,63.5a54.473,54.473,0,0,1,10.335,17.47,84.058,84.058,0,0,1,4.471,18.22,100.127,100.127,0,0,1,.756,20.138H534.8a41.943,41.943,0,0,0,2.327,13.989,32.343,32.343,0,0,0,6.491,11.145,29.4,29.4,0,0,0,13.227,8.278,33.555,33.555,0,0,0,10.031,1.538,37.6,37.6,0,0,0,12.806-2.345,49.987,49.987,0,0,0,10.219-5.161,53.445,53.445,0,0,0,9.213-7.508l13.437,13.477h0l0,0a67.937,67.937,0,0,1-27.272,18.911,56.591,56.591,0,0,1-19.5,3.5ZM548.081,74.742a29.562,29.562,0,0,0-8.506,10.814,47.115,47.115,0,0,0-3.627,10.815,41.142,41.142,0,0,0-.761,4.915h54.557a43.436,43.436,0,0,0-.94-8.792,38.969,38.969,0,0,0-2.528-8,26.9,26.9,0,0,0-5.1-7.742c-4.322-4.488-10.111-6.818-17.2-6.925-.164,0-.323,0-.486,0A24.8,24.8,0,0,0,548.081,74.742ZM841.828,170.95c-12-7.169-12.438-27.04-12.438-27.04V70.953H809.023v-19.4h20.367V22.657h25.42V51.548h20.672v19.4H854.81V143.91s1.03,6.314,6.673,8.42,15.9,0,15.9,0v20.247a89.767,89.767,0,0,1-18.193,2.042C853.039,174.62,846.541,173.765,841.828,170.95Zm-180.56,1.919a41.721,41.721,0,0,1-12.621-5.579,33.779,33.779,0,0,1-9.891-10.117,38.421,38.421,0,0,1-5.367-15.323,37.7,37.7,0,0,1,.753-15.29,28.805,28.805,0,0,1,6.088-11.279c12.991-14.909,40.223-17.134,55.3-17.134,6.311,0,10.537.394,10.58.4a32.206,32.206,0,0,0,.942-6.8,29.778,29.778,0,0,0-.454-6.557,21.5,21.5,0,0,0-2.517-6.931c-2.745-4.689-7.319-7.841-13.594-9.367a29.3,29.3,0,0,0-6.892-.878,20.594,20.594,0,0,0-10.417,2.679,22.228,22.228,0,0,0-6.579,5.894,28.178,28.178,0,0,0-4.427,8.573H636.535v-.012a33.163,33.163,0,0,1,1.325-5.675,43.531,43.531,0,0,1,6.349-12.51,41.349,41.349,0,0,1,14.942-12.509c7.529-3.774,16.646-5.687,27.1-5.687h.184c10.491.022,19.44,1.949,26.6,5.728A35.6,35.6,0,0,1,726.7,67a38.4,38.4,0,0,1,5.046,12.487,30.759,30.759,0,0,1,.726,5.673c-.006.555-.63,55.687,0,66.4a61.821,61.821,0,0,0,5.3,20.535H710.416l-2.5-12.545,0,.01a33.271,33.271,0,0,1-5.505,5.8A38.551,38.551,0,0,1,695.524,170a36.918,36.918,0,0,1-9.643,3.468,54.28,54.28,0,0,1-11.055,1.115A53.141,53.141,0,0,1,661.269,172.868Zm16.5-56.97c-3.233.758-7.812,2.241-11.263,5a19.06,19.06,0,0,0-6.847,11.176,19.257,19.257,0,0,0,2.841,14.074,15.548,15.548,0,0,0,6.989,6.03,22.254,22.254,0,0,0,9.106,1.775,33.879,33.879,0,0,0,12.75-2.617,39.624,39.624,0,0,0,11.242-7.228,32.924,32.924,0,0,0,3.938-4.177V114.907h-22.5A41.544,41.544,0,0,0,677.767,115.9Zm-537.55,56.911,3.479-132.764L94.041,172.809H73.951L23.7,40.045l3.815,132.764H0V8.609H36.277l47.594,127.18L132.229,8.609h35.277v164.2Zm832.268-.083V89.3s1.939-15.913-18.539-18.772S924.7,85.066,924.7,85.066v87.66H898.549V0H924.7V65.866s19.537-23.9,47.787-15.6,26.6,39.026,26.6,39.026v83.431Zm-207.813-.277V0h26.016V172.449Zm-331.259-.277L401.451,49.748,368.258,172.172H342.02L304.516,9.248h27.516l25.6,127.236L389.863,9.248h22.678l31.988,127.236L470.961,9.248h26.015L458.81,172.172Z" transform="translate(-21203.371 -22607.055)" fill="#fff"/>
  </g>
</svg>
